<svg width="36" height="36" viewBox="0 0 36 36" fill="none" xmlns="http://www.w3.org/2000/svg">
<mask id="mask0" mask-type="alpha" maskUnits="userSpaceOnUse" x="5" y="4" width="26" height="29">
<path d="M28.1111 30H7.88889V14.1111H28.1111V30ZM23.7778 4V6.88889H12.2222V4H9.33333V6.88889H7.88889C6.28556 6.88889 5 8.17444 5 9.77778V30C5 30.7662 5.30436 31.501 5.84614 32.0428C6.38791 32.5845 7.12271 32.8889 7.88889 32.8889H28.1111C28.8773 32.8889 29.6121 32.5845 30.1539 32.0428C30.6956 31.501 31 30.7662 31 30V9.77778C31 8.17444 29.7 6.88889 28.1111 6.88889H26.6667V4H23.7778ZM25.2222 19.8889H18V27.1111H25.2222V19.8889Z" fill="black"/>
</mask>
<g mask="url(#mask0)">
<rect width="36" height="36" fill="#1AAA9B"/>
</g>
</svg>
