<svg width="40" height="41" viewBox="0 0 40 41" fill="none" xmlns="http://www.w3.org/2000/svg">
<mask id="mask0" mask-type="alpha" maskUnits="userSpaceOnUse" x="9" y="9" width="22" height="25">
<path d="M28.5556 31H11.4444V17.5556H28.5556V31ZM24.8889 9V11.4444H15.1111V9H12.6667V11.4444H11.4444C10.0878 11.4444 9 12.5322 9 13.8889V31C9 31.6483 9.25754 32.2701 9.71596 32.7285C10.1744 33.1869 10.7961 33.4444 11.4444 33.4444H28.5556C29.2039 33.4444 29.8256 33.1869 30.284 32.7285C30.7425 32.2701 31 31.6483 31 31V13.8889C31 12.5322 29.9 11.4444 28.5556 11.4444H27.3333V9H24.8889ZM26.1111 22.4444H20V28.5556H26.1111V22.4444Z" fill="black"/>
</mask>
<g mask="url(#mask0)">
<rect width="40" height="41" fill="#53546A"/>
</g>
</svg>
