<svg width="59" height="56" viewBox="0 0 59 56" fill="none" xmlns="http://www.w3.org/2000/svg">
<path d="M46.7 42.6667V16.6667H12.3V42.6667H46.7ZM46.7 8C47.8404 8 48.9342 8.45655 49.7406 9.2692C50.547 10.0819 51 11.1841 51 12.3333V42.6667C51 43.8159 50.547 44.9181 49.7406 45.7308C48.9342 46.5435 47.8404 47 46.7 47H12.3C11.1596 47 10.0658 46.5435 9.25944 45.7308C8.45303 44.9181 8 43.8159 8 42.6667V12.3333C8 9.92833 9.935 8 12.3 8H46.7ZM31.65 38.3333V34H42.4V38.3333H31.65ZM24.297 29.6667L15.6755 21H21.76L28.855 28.15C29.6935 28.995 29.6935 30.3817 28.855 31.2267L21.803 38.3333H15.7185L24.297 29.6667Z" fill="#F5B13D"/>
</svg>
