<svg width="58" height="50" viewBox="0 0 58 50" fill="none" xmlns="http://www.w3.org/2000/svg">
<mask id="mask0" mask-type="alpha" maskUnits="userSpaceOnUse" x="12" y="5" width="33" height="39">
<path d="M28.5 31.6842C19.3837 31.6842 12 35.3584 12 39.8947V44H45V39.8947C45 35.3584 37.6163 31.6842 28.5 31.6842ZM20.25 19.3684C20.25 21.546 21.1192 23.6344 22.6664 25.1741C24.2135 26.7139 26.312 27.5789 28.5 27.5789C30.688 27.5789 32.7865 26.7139 34.3336 25.1741C35.8808 23.6344 36.75 21.546 36.75 19.3684H20.25ZM27.4688 5C26.85 5 26.4375 5.43105 26.4375 6.02632V12.1842H24.375V7.05263C24.375 7.05263 19.7344 8.81789 19.7344 14.75C19.7344 14.75 18.1875 15.0374 18.1875 17.3158H38.8125C38.7094 15.0374 37.2656 14.75 37.2656 14.75C37.2656 8.81789 32.625 7.05263 32.625 7.05263V12.1842H30.5625V6.02632C30.5625 5.43105 30.1706 5 29.5312 5H27.4688Z" fill="#646464"/>
</mask>
<g mask="url(#mask0)">
<rect width="58" height="50" fill="#F5B13D"/>
</g>
</svg>
