<svg width="54" height="54" viewBox="0 0 54 54" fill="none" xmlns="http://www.w3.org/2000/svg">
<mask id="mask0" mask-type="alpha" maskUnits="userSpaceOnUse" x="-1" y="8" width="56" height="38">
<path d="M40.2632 28.4615V40.1538C40.2632 40.9291 39.9526 41.6726 39.3999 42.2208C38.8472 42.769 38.0975 43.0769 37.3158 43.0769C36.8147 43.0769 36.3432 43.0769 34.5453 41.6154C32.7179 40.1538 29.6232 37.2308 26.44 35.7692C23.4926 34.4246 20.4568 34.3077 17.4505 34.3077L21.0168 44.0123L21.1053 44.5385C21.1053 44.9261 20.95 45.2978 20.6736 45.5719C20.3973 45.846 20.0224 46 19.6316 46H13.7368C13.0884 46 12.5284 45.5908 12.3516 45.0062L8.40211 34.3077H7.8421C7.06041 34.3077 6.31074 33.9997 5.758 33.4515C5.20526 32.9034 4.89474 32.1599 4.89474 31.3846C3.33136 31.3846 1.83201 30.7687 0.726528 29.6723C-0.378949 28.5759 -1 27.089 -1 25.5385C-1 23.988 -0.378949 22.501 0.726528 21.4046C1.83201 20.3082 3.33136 19.6923 4.89474 19.6923C4.89474 18.9171 5.20526 18.1736 5.758 17.6254C6.31074 17.0772 7.06041 16.7692 7.8421 16.7692H16.6842C19.9558 16.7692 23.2274 16.7692 26.44 15.3077C29.6232 13.8462 32.7179 10.9231 34.5453 9.46154C36.3432 8 36.8147 8 37.3158 8C38.0975 8 38.8472 8.30797 39.3999 8.85615C39.9526 9.40433 40.2632 10.1478 40.2632 10.9231V22.6154C41.0448 22.6154 41.7945 22.9234 42.3473 23.4715C42.9 24.0197 43.2105 24.7632 43.2105 25.5385C43.2105 26.3137 42.9 27.0572 42.3473 27.6054C41.7945 28.1536 41.0448 28.4615 40.2632 28.4615ZM55 25.5385C55 29.5723 53.3495 33.2262 50.6968 35.8862L46.5116 31.7354C48.1032 30.1569 49.1053 27.9646 49.1053 25.5385C49.1053 23.1123 48.1032 20.92 46.5116 19.3415L50.6968 15.1908C53.3495 17.8508 55 21.5046 55 25.5385Z" fill="#646464"/>
</mask>
<g mask="url(#mask0)">
<rect width="54" height="54" fill="#F5B13D"/>
</g>
</svg>
