<svg width="62" height="56" viewBox="0 0 62 56" fill="none" xmlns="http://www.w3.org/2000/svg">
<mask id="mask0" mask-type="alpha" maskUnits="userSpaceOnUse" x="11" y="9" width="40" height="39">
<path d="M47.075 38.25C48.1093 38.25 49.1013 37.8391 49.8327 37.1077C50.5641 36.3763 50.975 35.3843 50.975 34.35V12.9C50.975 11.8657 50.5641 10.8737 49.8327 10.1423C49.1013 9.41089 48.1093 9 47.075 9H26.522C27.2045 10.1895 27.575 11.535 27.575 12.9H47.075V34.35H29.525V38.25H47.075ZM37.325 18.75V22.65H25.625V48H21.725V36.3H17.825V48H13.925V32.4H11V22.65C11 21.6157 11.4109 20.6237 12.1423 19.8923C12.8737 19.1609 13.8657 18.75 14.9 18.75H37.325ZM23.675 12.9C23.675 13.9343 23.2641 14.9263 22.5327 15.6577C21.8013 16.3891 20.8093 16.8 19.775 16.8C18.7407 16.8 17.7487 16.3891 17.0173 15.6577C16.2859 14.9263 15.875 13.9343 15.875 12.9C15.875 11.8657 16.2859 10.8737 17.0173 10.1423C17.7487 9.41089 18.7407 9 19.775 9C20.8093 9 21.8013 9.41089 22.5327 10.1423C23.2641 10.8737 23.675 11.8657 23.675 12.9Z" fill="black"/>
</mask>
<g mask="url(#mask0)">
<rect width="62" height="56" fill="#F5B13D"/>
</g>
</svg>
