<svg width="70" height="49" viewBox="0 0 70 49" fill="none" xmlns="http://www.w3.org/2000/svg">
<path d="M42 24.3557C42 31.6912 37.4116 38.0535 30.2962 40.9927C29.8949 42.1933 31.3155 48.6914 29.9902 48.9834C28.3424 49.3465 23.0134 43.6284 21.2745 43.0097C9.67653 43.0097 0 34.4932 0 24.3557C0 14.2181 9.40202 6 21 6C32.598 6 42 14.2181 42 24.3557Z" fill="#F5B13D"/>
<path d="M70 18.3663C70 28.5098 61.3903 36.7326 49.6876 36.7326C48.9453 37.2142 45.7736 39.8969 44.7613 40.5848C44.1539 40.9975 43.656 41.458 42.8043 42.0981C41.9981 42.704 41.011 43.0574 40.6448 42.9923C40.3247 42.9354 40.0233 42.2448 39.97 41.5478C39.9185 40.8745 39.9723 39.9935 40.105 39.6217C40.105 38.7275 40.406 36.4916 40.9823 35.0817C41.6571 33.4308 41.6216 34.2563 42.3319 32.5366C43.4116 29.9227 43.2092 30.9545 43.6816 28.6157C44.1539 26.2769 44.1539 26.2081 44.1539 24.4884C44.1539 22.356 44.3564 22.6312 43.0742 18.3663C41.8595 15.8212 41.5221 14.7894 40.7123 13.6888C39.3458 11.8315 39.2952 11.9003 37.8106 10.3182C35.6511 8.3921 31.9362 7.26565 33.2892 5.84696C33.7589 5.35444 33.4385 5.70897 33.964 5.26162C37.7873 2.00723 43.0283 0 48.8103 0C60.5131 0 70 8.22288 70 18.3663Z" fill="#F5B13D"/>
<path d="M56.2972 8.625L61.3222 25H59.0222L57.9472 21.2H51.9222L50.8472 25H48.6722L53.6722 8.625H56.2972ZM54.9472 10.575L52.4472 19.3H57.4222L54.9472 10.575Z" fill="white"/>
<path d="M18.65 30C18.65 28.775 19.975 27.975 21.85 27.975C22.75 27.975 23.6 28.125 24.4 28.375C24.425 28.7 24.425 29 24.425 29.25C24.425 30.9 23.8 31.975 21.7 31.975C19.9 31.975 18.65 31.275 18.65 30ZM26.225 13.75H23.975C24.025 14.175 24.075 14.85 24.075 15.275V18.375C23.3 18.4 22.5 18.425 21.725 18.425C20.225 18.425 18.9 18.35 17.475 18.225V20.1C18.95 20.2 20.25 20.275 21.675 20.275C22.475 20.275 23.275 20.25 24.075 20.225C24.1 22.275 24.25 24.725 24.325 26.65C23.6 26.5 22.825 26.425 22 26.425C18.725 26.425 16.85 28.1 16.85 30.2C16.85 32.45 18.7 33.775 22.05 33.775C25.425 33.775 26.375 31.8 26.375 29.75C26.375 29.575 26.375 29.4 26.375 29.225C27.65 29.95 28.9 30.95 30.15 32.125L31.25 30.45C29.95 29.275 28.325 28.025 26.3 27.225C26.2 25.125 26.025 22.625 26 20.1C27.5 20 28.95 19.85 30.325 19.625V17.7C29 17.95 27.525 18.15 26 18.275C26.025 17.1 26.05 15.925 26.075 15.25C26.1 14.75 26.15 14.25 26.225 13.75ZM13.875 13.9L11.675 13.725C11.675 14.25 11.6 14.925 11.525 15.5C11.2 17.575 10.375 22.35 10.375 26.025C10.375 29.4 10.825 32.15 11.325 33.925L13.075 33.8C13.05 33.525 13.025 33.175 13.025 32.925C13 32.625 13.05 32.15 13.125 31.8C13.375 30.575 14.3 28.025 14.9 26.275L13.875 25.475C13.45 26.5 12.85 28.025 12.45 29.15C12.275 27.925 12.2 26.875 12.2 25.675C12.2 22.875 12.95 17.925 13.45 15.6C13.525 15.15 13.725 14.325 13.875 13.9Z" fill="white"/>
</svg>
