<svg width="40" height="39" viewBox="0 0 40 39" fill="none" xmlns="http://www.w3.org/2000/svg">
<mask id="mask0" mask-type="alpha" maskUnits="userSpaceOnUse" x="5" y="3" width="30" height="33">
<path d="M20.06 6.75L16.295 10.5H23.795L20.06 6.75ZM8 13.5V33H32V13.5H8ZM20 3L27.5 10.5H32C32.7956 10.5 33.5587 10.8161 34.1213 11.3787C34.6839 11.9413 35 12.7044 35 13.5V33C35 33.7956 34.6839 34.5587 34.1213 35.1213C33.5587 35.6839 32.7956 36 32 36H8C7.20435 36 6.44129 35.6839 5.87868 35.1213C5.31607 34.5587 5 33.7956 5 33V13.5C5 12.7044 5.31607 11.9413 5.87868 11.3787C6.44129 10.8161 7.20435 10.5 8 10.5H12.5L20 3ZM12.5 30V24H20V30H12.5ZM23 28.5V18H29V28.5H23ZM11 21V16.5H18.5V21H11Z" fill="black"/>
</mask>
<g mask="url(#mask0)">
<rect width="40" height="39" fill="#1AAA9B"/>
</g>
</svg>
