<svg width="49" height="49" viewBox="0 0 49 49" fill="none" xmlns="http://www.w3.org/2000/svg">
<mask id="mask0" mask-type="alpha" maskUnits="userSpaceOnUse" x="2" y="11" width="46" height="27">
<path d="M24.8462 11C23.1937 11 21.6088 11.6565 20.4403 12.825C19.2718 13.9934 18.6154 15.5783 18.6154 17.2308C18.6154 18.8833 19.2718 20.4681 20.4403 21.6366C21.6088 22.8051 23.1937 23.4615 24.8462 23.4615C26.4987 23.4615 28.0835 22.8051 29.252 21.6366C30.4205 20.4681 31.0769 18.8833 31.0769 17.2308C31.0769 15.5783 30.4205 13.9934 29.252 12.825C28.0835 11.6565 26.4987 11 24.8462 11ZM12.3846 15.5069C11.0075 15.5069 9.68685 16.054 8.7131 17.0277C7.73935 18.0015 7.19231 19.3221 7.19231 20.6992C7.19231 21.3811 7.32661 22.0563 7.58755 22.6862C7.84849 23.3162 8.23095 23.8886 8.7131 24.3707C9.19525 24.8529 9.76765 25.2354 10.3976 25.4963C11.0276 25.7572 11.7028 25.8915 12.3846 25.8915C14.2123 25.8915 15.8115 24.9362 16.7254 23.5238C15.3338 21.7585 14.4615 19.6192 14.4615 17.2308C14.4615 16.8154 14.4615 16.4 14.5446 15.9846C13.88 15.6731 13.1531 15.5069 12.3846 15.5069ZM37.3077 15.5069C36.5392 15.5069 35.8123 15.6731 35.1477 15.9846C35.2308 16.4 35.2308 16.8154 35.2308 17.2308C35.2308 19.6192 34.3585 21.7585 32.9669 23.5238C33.8808 24.9362 35.48 25.8915 37.3077 25.8915C37.9896 25.8915 38.6647 25.7572 39.2947 25.4963C39.9247 25.2354 40.4971 24.8529 40.9792 24.3707C41.4614 23.8886 41.8438 23.3162 42.1048 22.6862C42.3657 22.0563 42.5 21.3811 42.5 20.6992C42.5 20.0174 42.3657 19.3422 42.1048 18.7122C41.8438 18.0823 41.4614 17.5099 40.9792 17.0277C40.4971 16.5456 39.9247 16.1631 39.2947 15.9022C38.6647 15.6412 37.9896 15.5069 37.3077 15.5069ZM24.8462 27.6154C20.6923 27.6154 12.3846 29.6923 12.3846 33.8462V38H37.3077V33.8462C37.3077 29.6923 29 27.6154 24.8462 27.6154ZM9.62231 29.63C6.15385 30.2323 2 31.8523 2 34.5315V38H8.23077V33.8462C8.23077 32.2262 8.83308 30.7931 9.62231 29.63ZM40.07 29.63C40.8592 30.7931 41.4615 32.2262 41.4615 33.8462V38H47.6923V34.5315C47.6923 31.8523 43.5385 30.2323 40.07 29.63Z" fill="black"/>
</mask>
<g mask="url(#mask0)">
<rect width="49" height="49" fill="#1AAA9B"/>
</g>
</svg>
